<?xml version="1.0" encoding="iso-8859-1"?>
<!-- Generator: Adobe Illustrator 19.0.0, SVG Export Plug-In . SVG Version: 6.00 Build 0)  -->
<svg version="1.1" id="Layer_1" xmlns="http://www.w3.org/2000/svg" xmlns:xlink="http://www.w3.org/1999/xlink" x="0px" y="0px"
	 viewBox="0 0 512 512" style="enable-background:new 0 0 512 512;" xml:space="preserve">
<g>
	<g>
		<g>
			<path d="M323.597,116.369c-1.34-3.157-4.437-5.214-7.868-5.214h-33.015l-19.081-38.17c-2.893-5.786-12.382-5.786-15.275,0
				l-19.081,38.17h-33.015c-3.473,0-6.596,2.099-7.902,5.308c-1.314,3.217-0.546,6.903,1.937,9.327l28.493,27.827l-13.542,39.91
				c-1.143,3.362-0.077,7.083,2.671,9.336c1.562,1.28,3.482,1.937,5.41,1.937c1.468,0,2.944-0.375,4.275-1.143l39.185-22.682
				l37.461,22.596c3.021,1.826,6.861,1.596,9.651-0.563c2.782-2.176,3.951-5.837,2.927-9.216l-12.186-40.243l27.196-27.904
				C324.237,123.187,324.929,119.535,323.597,116.369z M278.917,145.246c-2.176,2.227-2.961,5.453-2.065,8.422l7.211,23.825
				l-22.776-13.739c-2.662-1.604-5.999-1.638-8.687-0.077l-23.893,13.833l7.97-23.501c1.058-3.115,0.23-6.554-2.116-8.849
				l-17.348-16.939h17.34c3.234,0,6.187-1.826,7.637-4.719l13.807-27.622l13.807,27.622c1.451,2.893,4.403,4.719,7.637,4.719h18.057
				L278.917,145.246z"/>
			<path d="M93.863,256h25.6v17.067c0,4.71,3.823,8.533,8.533,8.533s8.533-3.823,8.533-8.533v-25.6c0-4.71-3.823-8.533-8.533-8.533
				h-25.6v-204.8h307.2v204.8h-25.6c-4.719,0-8.533,3.823-8.533,8.533v25.6c0,4.71,3.814,8.533,8.533,8.533s8.533-3.823,8.533-8.533
				V256h25.6c4.719,0,8.533-3.823,8.533-8.533V25.6c0-4.71-3.814-8.533-8.533-8.533h-25.6V8.533c0-4.71-3.814-8.533-8.533-8.533
				s-8.533,3.823-8.533,8.533v8.533H136.53V8.533c0-4.71-3.823-8.533-8.533-8.533s-8.533,3.823-8.533,8.533v8.533h-25.6
				c-4.71,0-8.533,3.823-8.533,8.533v221.867C85.33,252.177,89.153,256,93.863,256z"/>
			<path d="M153.596,247.467c0,4.71,3.823,8.533,8.533,8.533h187.733c4.719,0,8.533-3.823,8.533-8.533s-3.814-8.533-8.533-8.533
				H162.13C157.419,238.933,153.596,242.756,153.596,247.467z"/>
			<path d="M73.127,340.506l146.261,69.649c1.186,0.563,2.432,0.828,3.669,0.828c3.183,0,6.246-1.792,7.706-4.864
				c2.022-4.258,0.222-9.344-4.036-11.375L80.466,325.094c-4.25-2.014-9.353-0.222-11.375,4.036S68.869,338.483,73.127,340.506z"/>
			<path d="M477.274,287.01c-1.732-4.378-6.665-6.536-11.068-4.821c-0.853,0.341-86.784,33.544-210.21,33.544
				c-123.435,0-209.357-33.203-210.21-33.544c-4.361-1.698-9.335,0.435-11.059,4.821c-1.724,4.378,0.427,9.336,4.804,11.059
				c3.601,1.425,89.583,34.731,216.465,34.731c126.874,0,212.864-33.306,216.457-34.731
				C476.839,296.346,478.998,291.388,477.274,287.01z"/>
			<path d="M438.866,495.761l-144.87-68.983c-4.275-2.031-9.353-0.213-11.375,4.036c-2.022,4.258-0.213,9.353,4.045,11.375
				l144.862,68.983c1.186,0.563,2.432,0.828,3.661,0.828c3.191,0,6.246-1.792,7.714-4.864
				C444.933,502.878,443.124,497.784,438.866,495.761z"/>
			<path d="M431.527,325.094l-358.4,170.667c-4.258,2.022-6.059,7.117-4.036,11.375c1.468,3.072,4.523,4.864,7.706,4.864
				c1.237,0,2.483-0.264,3.669-0.828l358.4-170.667c4.258-2.022,6.067-7.117,4.036-11.375
				C440.88,324.881,435.802,323.072,431.527,325.094z"/>
		</g>
	</g>
</g>
<g>
</g>
<g>
</g>
<g>
</g>
<g>
</g>
<g>
</g>
<g>
</g>
<g>
</g>
<g>
</g>
<g>
</g>
<g>
</g>
<g>
</g>
<g>
</g>
<g>
</g>
<g>
</g>
<g>
</g>
</svg>
