<?xml version="1.0" encoding="iso-8859-1"?>
<!-- Generator: Adobe Illustrator 19.0.0, SVG Export Plug-In . SVG Version: 6.00 Build 0)  -->
<svg xmlns="http://www.w3.org/2000/svg" xmlns:xlink="http://www.w3.org/1999/xlink" version="1.1" id="Layer_1" x="0px" y="0px" viewBox="0 0 512 512" style="enable-background:new 0 0 512 512;" xml:space="preserve" width="512px" height="512px">
<g>
	<g>
		<g>
			<path d="M298.906,247.663c1.271,0,2.569-0.282,3.789-0.887c37.274-18.483,123.972-72.03,123.972-169.976V51.2     c9.412,0,17.067-7.654,17.067-17.067V17.067C443.733,7.654,436.079,0,426.667,0H85.333c-9.412,0-17.067,7.654-17.067,17.067     v17.067c0,9.412,7.654,17.067,17.067,17.067v25.6c0,110.199,110.106,170.769,168.32,187.401     C377.011,299.452,409.6,391.467,409.6,435.2v34.133c0,4.71,3.823,8.533,8.533,8.533h8.533v17.067H85.333v-17.067h8.533H384     c4.71,0,8.533-3.823,8.533-8.533S388.71,460.8,384,460.8H102.4v-25.6c0-88.346,80-137.574,114.389-154.633     c4.224-2.091,5.948-7.211,3.857-11.435c-2.099-4.215-7.211-5.948-11.435-3.857C171.964,283.759,85.333,337.297,85.333,435.2v25.6     c-9.412,0-17.067,7.654-17.067,17.067v17.067c0,9.412,7.654,17.067,17.067,17.067h341.333c9.412,0,17.067-7.654,17.067-17.067     v-17.067c0-9.412-7.654-17.067-17.067-17.067v-25.6c0-110.199-110.106-170.769-168.32-187.401     C134.989,212.548,102.4,120.533,102.4,76.8V42.667c0-4.71-3.823-8.533-8.533-8.533h-8.533V17.067h341.333v17.067h-8.533H128     c-4.71,0-8.533,3.823-8.533,8.533c0,4.71,3.823,8.533,8.533,8.533h281.6v25.6c0,88.388-80.068,137.617-114.492,154.684     c-4.224,2.091-5.948,7.211-3.857,11.435C292.745,245.922,295.765,247.663,298.906,247.663z" fill="#FFFFFF"/>
			<path d="M256.256,332.8c4.719,0,8.533-3.823,8.533-8.533s-3.814-8.533-8.533-8.533h-0.085c-4.71,0-8.491,3.823-8.491,8.533     S251.546,332.8,256.256,332.8z" fill="#FFFFFF"/>
			<path d="M125.926,392.789c-4.565,1.143-7.347,5.777-6.204,10.351c1.143,4.574,5.786,7.356,10.351,6.204     c0.648-0.171,66.697-16.324,123.58-0.077c20.898,5.973,42.607,7.962,62.268,7.962c37.956,0,68.258-7.407,70.153-7.885     c4.565-1.143,7.347-5.777,6.204-10.351c-1.143-4.565-5.777-7.347-10.351-6.204c-0.657,0.162-66.705,16.316-123.58,0.077     C197.103,375.356,128.802,392.064,125.926,392.789z" fill="#FFFFFF"/>
			<path d="M256.256,366.933c4.719,0,8.533-3.823,8.533-8.533s-3.814-8.533-8.533-8.533h-0.085c-4.71,0-8.491,3.823-8.491,8.533     S251.546,366.933,256.256,366.933z" fill="#FFFFFF"/>
			<path d="M256.256,298.667c4.719,0,8.533-3.823,8.533-8.533s-3.814-8.533-8.533-8.533h-0.085c-4.71,0-8.491,3.823-8.491,8.533     S251.546,298.667,256.256,298.667z" fill="#FFFFFF"/>
		</g>
	</g>
</g>
<g>
</g>
<g>
</g>
<g>
</g>
<g>
</g>
<g>
</g>
<g>
</g>
<g>
</g>
<g>
</g>
<g>
</g>
<g>
</g>
<g>
</g>
<g>
</g>
<g>
</g>
<g>
</g>
<g>
</g>
</svg>
